<svg id="数据分享" xmlns="http://www.w3.org/2000/svg" width="202.151" height="136.342" viewBox="0 0 202.151 136.342">
  <rect id="矩形_3316" data-name="矩形 3316" width="93.302" height="100.059" transform="translate(108.512 35.946)" fill="#fff"/>
  <path id="路径_9829" data-name="路径 9829" d="M306.188,200.352h-93.3a.337.337,0,0,1-.337-.337V99.957a.337.337,0,0,1,.337-.337h93.3a.337.337,0,0,1,.336.337V200.016A.337.337,0,0,1,306.188,200.352Zm-92.965-.673h92.629V100.293H213.223Z" transform="translate(-104.374 -64.01)" fill="#231f20"/>
  <rect id="矩形_3317" data-name="矩形 3317" width="93.302" height="11.078" transform="translate(108.512 35.946)" fill="#fff"/>
  <path id="路径_9830" data-name="路径 9830" d="M306.188,111.371h-93.3a.337.337,0,0,1-.337-.337V99.957a.337.337,0,0,1,.337-.337h93.3a.337.337,0,0,1,.336.337v11.078A.337.337,0,0,1,306.188,111.371Zm-92.965-.673h92.629V100.293H213.223Z" transform="translate(-104.374 -64.01)" fill="#231f20"/>
  <circle id="椭圆_153" data-name="椭圆 153" cx="1.42" cy="1.42" r="1.42" transform="translate(112.079 39.877)" fill="#ff595e"/>
  <circle id="椭圆_154" data-name="椭圆 154" cx="1.42" cy="1.42" r="1.42" transform="translate(117.181 39.877)" fill="#d1d3d4"/>
  <circle id="椭圆_155" data-name="椭圆 155" cx="1.42" cy="1.42" r="1.42" transform="translate(122.283 39.877)" fill="#d1d3d4"/>
  <path id="路径_9831" data-name="路径 9831" d="M254.093,171.681s-20.8,2.968-23.6,0-9.194-19.9-9.194-19.9l-7.4,6.111s5.559,31.7,14.988,31.531,30.549-7.881,30.549-7.881Z" transform="translate(-104.816 -81.065)" fill="#fff"/>
  <path id="路径_9832" data-name="路径 9832" d="M228.642,189.594c-9.557,0-15.015-30.508-15.244-31.814a.357.357,0,0,1,.114-.316l7.4-6.111a.35.35,0,0,1,.3-.067.37.37,0,0,1,.229.209c.061.168,6.407,16.906,9.12,19.794,2.194,2.322,17.566.713,23.307-.108a.35.35,0,0,1,.343.175l5.351,9.833a.33.33,0,0,1-.175.471c-.215.081-21.295,7.767-30.67,7.935ZM214.1,157.861c.485,2.632,5.923,31.06,14.537,31.06h.074c8.588-.155,27.231-6.73,30.084-7.76l-5.048-9.281c-1.077.148-5.7.761-10.546,1.084-7.471.5-11.886.088-13.117-1.218-2.584-2.746-8.043-16.826-9.093-19.572Z" transform="translate(-104.65 -80.9)" fill="#231f20"/>
  <rect id="矩形_3318" data-name="矩形 3318" width="93.302" height="100.059" transform="translate(0.337 0.33)" fill="#fff"/>
  <path id="路径_9833" data-name="路径 9833" d="M145.492,147.442H52.157a.337.337,0,0,1-.337-.337V47.047a.337.337,0,0,1,.337-.337h93.336a.337.337,0,0,1,.337.337V147.106A.337.337,0,0,1,145.492,147.442Zm-92.965-.673h92.6V47.383H52.493Z" transform="translate(-51.82 -46.71)" fill="#231f20"/>
  <rect id="矩形_3319" data-name="矩形 3319" width="93.302" height="11.078" transform="translate(0.337 0.33)" fill="#fff"/>
  <path id="路径_9834" data-name="路径 9834" d="M145.492,58.461H52.157a.343.343,0,0,1-.337-.337V47.047a.337.337,0,0,1,.337-.337h93.336a.337.337,0,0,1,.337.337V58.125A.336.336,0,0,1,145.492,58.461Zm-92.965-.673h92.6V47.383H52.493Z" transform="translate(-51.82 -46.71)" fill="#231f20"/>
  <circle id="椭圆_156" data-name="椭圆 156" cx="1.42" cy="1.42" r="1.42" transform="translate(3.904 4.26)" fill="#ff595e"/>
  <circle id="椭圆_157" data-name="椭圆 157" cx="1.42" cy="1.42" r="1.42" transform="translate(9.005 4.26)" fill="#d1d3d4"/>
  <circle id="椭圆_158" data-name="椭圆 158" cx="1.42" cy="1.42" r="1.42" transform="translate(14.107 4.26)" fill="#d1d3d4"/>
  <path id="路径_9835" data-name="路径 9835" d="M88.174,178.89,85.98,190.325H121.6l-1.959-5.808Z" transform="translate(-62.989 -89.929)" fill="#231f20"/>
  <path id="路径_9836" data-name="路径 9836" d="M121.447,190.5H85.837a.33.33,0,0,1-.256-.121.323.323,0,0,1-.074-.276L87.7,178.657a.337.337,0,0,1,.39-.269l31.464,5.627a.343.343,0,0,1,.262.222l1.959,5.808a.337.337,0,0,1-.316.444Zm-35.213-.673h34.742l-1.743-5.176-30.959-5.532Z" transform="translate(-62.833 -89.763)" fill="#231f20"/>
  <path id="路径_9837" data-name="路径 9837" d="M151.668,130.8l20.2,24.343-8.9,3.641L141.33,135.754Z" transform="translate(-81.087 -74.205)" fill="#fff"/>
  <path id="路径_9838" data-name="路径 9838" d="M162.821,158.958a.323.323,0,0,1-.242-.108l-21.624-23.031a.323.323,0,0,1-.087-.289.33.33,0,0,1,.188-.242l10.338-4.953a.336.336,0,0,1,.4.088l20.191,24.343a.33.33,0,0,1,.067.3.343.343,0,0,1-.2.229l-8.891,3.641a.276.276,0,0,1-.141.027ZM141.742,135.7l21.167,22.526,8.258-3.365-19.74-23.785Z" transform="translate(-80.934 -74.042)" fill="#231f20"/>
  <path id="路径_9839" data-name="路径 9839" d="M145.865,111.95,156.1,125.289l-13.952,7.652Z" transform="translate(-81.355 -68.042)" fill="#ff595e"/>
  <path id="路径_9840" data-name="路径 9840" d="M127.506,109.769c-.855-1.346-20.265-7.457-26.632-2.975S87.757,145.937,86,156.665l38.793,9.974S132.21,117.34,127.506,109.769Z" transform="translate(-62.996 -65.827)" fill="#ff595e"/>
  <path id="路径_9841" data-name="路径 9841" d="M146.314,164.838h-.04a.337.337,0,0,1-.276-.39c.034-.3,3.473-30.286,2.362-37.8a.34.34,0,0,1,.673-.1c1.124,7.612-2.214,36.741-2.356,37.972a.343.343,0,0,1-.363.316Z" transform="translate(-82.612 -72.72)" fill="#231f20"/>
  <path id="路径_9842" data-name="路径 9842" d="M128.247,85.792a12.169,12.169,0,0,1-5.579-3.432,4.933,4.933,0,0,1-1.346-2.611,2.308,2.308,0,0,1,1.346-2.423,3.446,3.446,0,0,1-1.508-2.766,6.057,6.057,0,0,1,.828-3.13c.673-1.252,1.784-2.443,3.2-2.483-.511-1.1-1.023-2.383-.518-3.486a3.762,3.762,0,0,1,1.211-1.346,19.141,19.141,0,0,1,3.022-1.925c.572-.289,1.3-.545,1.81-.162a6.212,6.212,0,0,1,4.839-4.408,5.169,5.169,0,0,1,3.332.431,20.365,20.365,0,0,1,2.692,2.376,6.344,6.344,0,0,1,5.485,1.218,4.267,4.267,0,0,1,.969,4.24,9.423,9.423,0,0,1,3.008,2.692,4.577,4.577,0,0,1,.673,3.87,3.062,3.062,0,0,1-3.062,2.154,3.257,3.257,0,0,1,.135,4.3,3.978,3.978,0,0,1-4.321,1.05,1.454,1.454,0,0,0-.673-.141,1.75,1.75,0,0,0-.673.417c-.673.532-1.548.35-2.3.673a21.322,21.322,0,0,0-2.874,2.019,33.32,33.32,0,0,1-2.894,1.743,18.392,18.392,0,0,1-3.365,1.851c-1.077.316-1.669-.155-2.692-.471Z" transform="translate(-74.492 -50.242)" fill="#fff"/>
  <path id="路径_9843" data-name="路径 9843" d="M130.826,86.776a3.742,3.742,0,0,1-1.434-.35c-.209-.074-.424-.162-.673-.236l-.767-.249h0a12.619,12.619,0,0,1-5.721-3.527,5.1,5.1,0,0,1-1.42-2.8,2.807,2.807,0,0,1,1.036-2.5,3.957,3.957,0,0,1-1.218-2.692,6.4,6.4,0,0,1,.882-3.284,4.9,4.9,0,0,1,2.995-2.6,3.351,3.351,0,0,1,.983-4.826,20.683,20.683,0,0,1,3.076-1.992,2.591,2.591,0,0,1,1.75-.337,6.555,6.555,0,0,1,4.994-4.26,5.478,5.478,0,0,1,3.54.458,24.59,24.59,0,0,1,2.692,2.3,6.643,6.643,0,0,1,5.606,1.346,4.63,4.63,0,0,1,1.131,4.328,9.261,9.261,0,0,1,2.894,2.652,4.893,4.893,0,0,1,.666,4.2,3.52,3.52,0,0,1-2.692,2.356,3.648,3.648,0,0,1-.3,4.193,4.274,4.274,0,0,1-4.711,1.151h-.074a1.05,1.05,0,0,0-.411-.094.935.935,0,0,0-.4.242l-.135.108a3.022,3.022,0,0,1-1.467.5,3.115,3.115,0,0,0-.9.222,10.258,10.258,0,0,0-1.9,1.279c-.316.242-.626.478-.922.673a30.055,30.055,0,0,1-2.907,1.743c-.357.2-.713.431-1.084.673a9.2,9.2,0,0,1-2.322,1.211,2.88,2.88,0,0,1-.781.114ZM129.9,62.015a2.409,2.409,0,0,0-1.03.316,19.33,19.33,0,0,0-2.975,1.891,3.621,3.621,0,0,0-1.111,1.211c-.444.962.04,2.16.525,3.2a.343.343,0,0,1,0,.323.363.363,0,0,1-.276.162c-1.541.04-2.551,1.622-2.914,2.3a5.788,5.788,0,0,0-.787,2.955,3.123,3.123,0,0,0,1.346,2.5.33.33,0,0,1-.061.6,1.972,1.972,0,0,0-1.111,2.073,4.489,4.489,0,0,0,1.259,2.423,11.879,11.879,0,0,0,5.431,3.365h0c.242.088.5.168.754.249s.485.168.673.249a2.436,2.436,0,0,0,1.784.215,8.507,8.507,0,0,0,2.14-1.131,11.465,11.465,0,0,1,1.137-.673,32.25,32.25,0,0,0,2.86-1.723c.289-.2.586-.431.9-.673a10.93,10.93,0,0,1,2.019-1.346,3.85,3.85,0,0,1,1.077-.276,2.362,2.362,0,0,0,1.158-.377l.128-.094a1.427,1.427,0,0,1,.734-.384,1.494,1.494,0,0,1,.734.128h.067a3.654,3.654,0,0,0,3.971-.962,2.941,2.941,0,0,0-.108-3.843.33.33,0,0,1-.074-.384.337.337,0,0,1,.343-.2,2.692,2.692,0,0,0,2.726-1.911,4.213,4.213,0,0,0-.633-3.581,8.978,8.978,0,0,0-2.9-2.584.337.337,0,0,1-.141-.4,3.951,3.951,0,0,0-.9-3.93,5.909,5.909,0,0,0-5.142-1.131h0a.337.337,0,0,1-.437-.215,25.977,25.977,0,0,0-2.544-2.194,4.751,4.751,0,0,0-3.109-.4,5.882,5.882,0,0,0-4.577,4.159.343.343,0,0,1-.215.236.33.33,0,0,1-.316-.047A.72.72,0,0,0,129.9,62.015Z" transform="translate(-74.319 -50.075)" fill="#231f20"/>
  <path id="路径_9844" data-name="路径 9844" d="M153.683,91.91s1.514,5.384.619,6.057-2.692-.525-2.692-.525" transform="translate(-84.449 -61.489)" fill="#fff"/>
  <path id="路径_9845" data-name="路径 9845" d="M153.406,98.394a4.624,4.624,0,0,1-2.194-.808.343.343,0,0,1-.081-.471.337.337,0,0,1,.464-.088c.417.289,1.743,1,2.315.538.437-.35,0-3.244-.727-5.734a.336.336,0,1,1,.646-.182c.37,1.306,1.5,5.64.5,6.441A1.413,1.413,0,0,1,153.406,98.394Z" transform="translate(-84.272 -61.323)" fill="#231f20"/>
  <path id="路径_9846" data-name="路径 9846" d="M147.391,76.622a1.42,1.42,0,0,1,.39.9,9.623,9.623,0,0,1-.229,3.533,56.2,56.2,0,0,1-1.932,6.73q-1.447,4.4-3.082,8.749c-.673,1.831-5.539.337-6.212-.491l-1.6,7.605s-2.517-.1-5.842-3.143-3.062-3.978-3.062-3.978l3.029-8.406s3.183,1.036,6.286-2.16c.491-.511.909-1.427,1.487-1.81.707-.478,1.521-.363,2.154-1.077a2.847,2.847,0,0,0,.619-2.463c-.04-.188-.087-.417.054-.545a.552.552,0,0,1,.316-.1,2.409,2.409,0,0,0,1.952-2.813c1.218.39,2.423-.579,3.365-1.467-.289.283,1.878.673,1.911.673A1.386,1.386,0,0,1,147.391,76.622Z" transform="translate(-76.017 -56.182)" fill="#fff"/>
  <path id="路径_9847" data-name="路径 9847" d="M134.572,103.821h0c-.108,0-2.692-.141-6.057-3.237-3.224-2.955-3.237-4.038-3.163-4.314l3.029-8.42a.337.337,0,0,1,.424-.209c.121.04,3.029.922,5.936-2.073a5.465,5.465,0,0,0,.538-.713,4.382,4.382,0,0,1,1-1.144,3.722,3.722,0,0,1,1-.431,2.113,2.113,0,0,0,1.1-.586,2.51,2.51,0,0,0,.559-2.167.841.841,0,0,1,.162-.868.787.787,0,0,1,.471-.182,1.958,1.958,0,0,0,1.346-.861,1.911,1.911,0,0,0,.35-1.535.337.337,0,0,1,.1-.323.316.316,0,0,1,.33-.074c1.05.33,2.16-.572,3.008-1.393h0a.337.337,0,0,1,.478,0,.4.4,0,0,1,.088.168,8.655,8.655,0,0,0,1.555.424l.155.04a1.723,1.723,0,0,1,.491.289h0a1.8,1.8,0,0,1,.491,1.084,9.847,9.847,0,0,1-.229,3.661,49.888,49.888,0,0,1-1.757,6.138l-.215.673c-.956,2.928-2.019,5.876-3.082,8.749a1.73,1.73,0,0,1-1.5,1.036,8.588,8.588,0,0,1-4.812-1.057l-1.481,7.087A.33.33,0,0,1,134.572,103.821Zm-8.588-7.349s.087.969,2.975,3.621a11.207,11.207,0,0,0,5.351,3.022l1.528-7.309a.337.337,0,0,1,.592-.141,7.434,7.434,0,0,0,4.657,1.2,1.117,1.117,0,0,0,.976-.612c1.09-2.867,2.127-5.808,3.076-8.749l.215-.673a49.928,49.928,0,0,0,1.71-6.057,9.423,9.423,0,0,0,.229-3.365,1.225,1.225,0,0,0-.283-.713,1.075,1.075,0,0,0-.3-.168h-.067a7.9,7.9,0,0,1-1.784-.518,4.152,4.152,0,0,1-2.914,1.386,2.746,2.746,0,0,1-.5,1.588,2.618,2.618,0,0,1-1.8,1.144H139.5a.794.794,0,0,1,.067.222,3.157,3.157,0,0,1-.693,2.793,2.76,2.76,0,0,1-1.393.787,2.867,2.867,0,0,0-.821.343,3.9,3.9,0,0,0-.821.969,6.332,6.332,0,0,1-.613.794,6.876,6.876,0,0,1-6.313,2.329l-2.928,8.117Z" transform="translate(-75.857 -56.023)" fill="#231f20"/>
  <path id="路径_9848" data-name="路径 9848" d="M140.908,87.145a4.146,4.146,0,0,0-.175-2.282,6.178,6.178,0,0,0-.673-1.676,2.019,2.019,0,0,0-1.366-.989,1.885,1.885,0,0,0-1.447.545,3.54,3.54,0,0,0-.835,1.346,6.616,6.616,0,0,0,1.131,6.528l-.108-.229" transform="translate(-79.346 -58.312)" fill="#fff"/>
  <path id="路径_9849" data-name="路径 9849" d="M137.332,90.793a.33.33,0,0,1-.256-.121,7.006,7.006,0,0,1-1.191-6.865,3.87,3.87,0,0,1,.922-1.467,2.187,2.187,0,0,1,1.709-.633,2.342,2.342,0,0,1,1.683,1.137,6.521,6.521,0,0,1,.673,1.77,4.462,4.462,0,0,1,.175,2.47.35.35,0,0,1-.673-.2,3.984,3.984,0,0,0-.188-2.1,5.822,5.822,0,0,0-.6-1.582,1.7,1.7,0,0,0-1.185-.835,1.541,1.541,0,0,0-1.178.458,3.2,3.2,0,0,0-.727,1.218,6.333,6.333,0,0,0,.808,5.862.323.323,0,0,1,.2.175l.108.229a.337.337,0,0,1-.121.424A.357.357,0,0,1,137.332,90.793Z" transform="translate(-79.169 -58.151)" fill="#231f20"/>
  <path id="路径_9850" data-name="路径 9850" d="M139.923,104.148a8.233,8.233,0,0,1-2.874-3.668s-1.265,4.536,2.16,7.053Z" transform="translate(-79.613 -64.291)" fill="#231f20"/>
  <path id="路径_9851" data-name="路径 9851" d="M139.051,107.713a.35.35,0,0,1-.2-.061c-3.574-2.632-2.3-7.4-2.3-7.4a.336.336,0,0,1,.323-.249h0a.343.343,0,0,1,.323.242,7.749,7.749,0,0,0,2.746,3.486.336.336,0,0,1,.135.343l-.713,3.365a.33.33,0,0,1-.209.249A.35.35,0,0,1,139.051,107.713Zm-2.019-6.2a6.205,6.205,0,0,0,1.8,5.256l.552-2.638a9.375,9.375,0,0,1-2.342-2.618Z" transform="translate(-79.454 -64.134)" fill="#231f20"/>
  <ellipse id="椭圆_159" data-name="椭圆 159" cx="1.104" cy="0.431" rx="1.104" ry="0.431" transform="matrix(0.34, -0.94, 0.94, 0.34, 67.158, 28.325)" fill="#231f20"/>
  <path id="路径_9852" data-name="路径 9852" d="M149.475,99.058l-2.881-2.288s-2.228,3.641-1.124,5.559S148.755,100.963,149.475,99.058Z" transform="translate(-82.341 -63.078)" fill="#fff"/>
  <path id="路径_9853" data-name="路径 9853" d="M146.135,103.088a1.272,1.272,0,0,1-1.124-.754c-1.185-2.066,1.036-5.748,1.137-5.9a.33.33,0,0,1,.229-.155.316.316,0,0,1,.262.067l2.881,2.288a.35.35,0,0,1,.108.384c-.464,1.225-1.952,3.951-3.365,4.038Zm.4-5.97c-.5.909-1.743,3.473-.936,4.886.222.39.437.417.579.411.808-.067,2.086-1.837,2.732-3.406Z" transform="translate(-82.178 -62.915)" fill="#231f20"/>
  <rect id="矩形_3320" data-name="矩形 3320" width="43.821" height="83.381" transform="translate(109.957 44.565) rotate(52.52)" fill="#fff"/>
  <path id="路径_9854" data-name="路径 9854" d="M143.384,198.6a.33.33,0,0,1-.262-.135L116.456,163.7a.337.337,0,0,1-.067-.249.37.37,0,0,1,.128-.229l66.165-50.733a.33.33,0,0,1,.471.061l26.665,34.775a.33.33,0,0,1,.067.249.357.357,0,0,1-.128.222l-66.165,50.733a.343.343,0,0,1-.209.074ZM117.2,163.547l26.248,34.244,65.627-50.329-26.248-34.237Z" transform="translate(-72.931 -68.193)" fill="#231f20"/>
  <path id="路径_9855" data-name="路径 9855" d="M154.363,192.926H154.3a.3.3,0,0,1-.222-.148l-.148-.2a6.73,6.73,0,0,0-9.422-1.245.33.33,0,0,1-.471-.061l-11.233-14.652a.337.337,0,0,1,.061-.471,6.73,6.73,0,0,0,1.245-9.422,2.179,2.179,0,0,0-.155-.2.3.3,0,0,1-.088-.256.323.323,0,0,1,.128-.236l48.418-37.124a.323.323,0,0,1,.485.088l.141.2a6.73,6.73,0,0,0,9.422,1.252.37.37,0,0,1,.249-.067.357.357,0,0,1,.222.128l11.233,14.652a.337.337,0,0,1-.061.471,6.73,6.73,0,0,0-1.245,9.422l.162.2a.31.31,0,0,1,.087.256.35.35,0,0,1-.128.242l-48.418,37.138A.317.317,0,0,1,154.363,192.926Zm-5.775-3.661a7.4,7.4,0,0,1,5.842,2.847l47.866-36.7a7.4,7.4,0,0,1,1.137-10.1L192.6,131.182a7.4,7.4,0,0,1-10.062-1.561L134.67,166.328a7.4,7.4,0,0,1-1.137,10.1l10.829,14.134a7.4,7.4,0,0,1,4.227-1.292Z" transform="translate(-78.277 -73.564)" fill="#d1d3d4"/>
  <path id="路径_9856" data-name="路径 9856" d="M128.965,141.44s20.554,25.111,24.269,26.006,9.84-.2,9.422,1.763-6.34,1.972-6.34,1.972,7.255,3.163,6.36,5.3-4.321,3.877-7.4,2.564-4.785-3.614-7.464-4.927S120,149.537,120,149.537Z" transform="translate(-74.113 -77.684)" fill="#fff"/>
  <path id="路径_9857" data-name="路径 9857" d="M157.341,179.682a5.99,5.99,0,0,1-2.369-.485,18.567,18.567,0,0,1-4.227-2.726,18.08,18.08,0,0,0-3.251-2.208c-2.692-1.346-26.867-23.684-27.9-24.64a.343.343,0,0,1-.108-.249.336.336,0,0,1,.114-.249l8.965-8.076a.343.343,0,0,1,.485.04c5.7,6.959,21.133,25.178,24.094,25.885a25,25,0,0,0,4.812.431c2.268.061,4.038.108,4.657.868a1.03,1.03,0,0,1,.182.868c-.357,1.582-3.4,2.019-5.27,2.181,2.221,1.09,6.057,3.291,5.27,5.149a5.458,5.458,0,0,1-3.035,2.739A6.428,6.428,0,0,1,157.341,179.682ZM120.325,149.4c2.692,2.517,25.016,23.071,27.466,24.276a19.105,19.105,0,0,1,3.365,2.282,17.5,17.5,0,0,0,4.079,2.638,5.533,5.533,0,0,0,4.274,0,4.8,4.8,0,0,0,2.692-2.383c.532-1.265-3.3-3.6-6.185-4.859a.336.336,0,0,1-.2-.377.33.33,0,0,1,.33-.269c2.174,0,5.734-.464,6.01-1.7a.336.336,0,0,0-.047-.31c-.4-.518-2.308-.565-4.146-.612a25.654,25.654,0,0,1-4.96-.451c-3.614-.861-21.867-22.964-24.229-25.838Z" transform="translate(-73.946 -77.53)" fill="#231f20"/>
  <path id="路径_9858" data-name="路径 9858" d="M117.789,122.57l8.44,11.078-12.014,11.078L107,136.414" transform="translate(-69.862 -71.514)" fill="#ff595e"/>
  <path id="路径_9859" data-name="路径 9859" d="M114.054,144.913h0a.343.343,0,0,1-.236-.114l-7.215-8.312a.336.336,0,0,1,.478-.471l6.986,8.076,11.549-10.62-8.258-10.836a.339.339,0,1,1,.538-.411l8.46,11.058a.35.35,0,0,1-.04.458L114.3,144.819A.37.37,0,0,1,114.054,144.913Z" transform="translate(-69.701 -71.358)" fill="#231f20"/>
  <path id="路径_9860" data-name="路径 9860" d="M303.905,144.993a14.624,14.624,0,0,1,5.714,1.575c3.1,1.481,6.057,3.917,6.73,7.282.559,2.692-.478,5.532-1.79,7.989s-2.928,4.8-3.661,7.484-.39,5.916,1.736,7.713a28.5,28.5,0,0,1-7.928-4.6,7.136,7.136,0,0,1-2.591-4.583,9.3,9.3,0,0,1,1.05-4.26,19.334,19.334,0,0,0,1.918-6.259c.135-2.187-.673-4.59-2.571-5.694-1.656-.969-7.074-.875-6.226-3.917C296.973,145.3,301.967,144.885,303.905,144.993Z" transform="translate(-131.724 -78.841)" fill="#fff"/>
  <path id="路径_9861" data-name="路径 9861" d="M312.51,177.165a.3.3,0,0,1-.135,0,28.755,28.755,0,0,1-8.022-4.664,7.458,7.458,0,0,1-2.692-4.812,9.6,9.6,0,0,1,1.076-4.413l.115-.264a18.327,18.327,0,0,0,1.777-5.882,5.727,5.727,0,0,0-2.4-5.384,9.067,9.067,0,0,0-2.12-.673c-1.6-.377-3.419-.808-4.1-1.952a2.113,2.113,0,0,1-.168-1.7c.74-2.652,5.977-3.049,7.928-2.968a14.807,14.807,0,0,1,5.849,1.609c2.234,1.07,6.1,3.466,6.946,7.518.485,2.362-.094,4.974-1.824,8.211-.336.639-.673,1.265-1.057,1.9a24.53,24.53,0,0,0-2.578,5.519c-.619,2.241-.559,5.512,1.629,7.4a.33.33,0,0,1,.067.437.323.323,0,0,1-.289.114Zm-9.194-32.056c-2.255,0-6.279.565-6.811,2.49a1.434,1.434,0,0,0,.094,1.171c.532.9,2.2,1.292,3.675,1.642a8.932,8.932,0,0,1,2.3.727,6.37,6.37,0,0,1,2.739,6,18.474,18.474,0,0,1-1.837,6.1l-.114.269a8.962,8.962,0,0,0-1.016,4.1,7.063,7.063,0,0,0,2.483,4.361,24.035,24.035,0,0,0,6.414,3.91,8.74,8.74,0,0,1-.781-6.858,24.976,24.976,0,0,1,2.645-5.68c.357-.626.713-1.245,1.05-1.878,1.649-3.089,2.208-5.559,1.757-7.76-.781-3.769-4.455-6.057-6.576-7.047a14.133,14.133,0,0,0-5.579-1.541Z" transform="translate(-131.573 -78.667)" fill="#231f20"/>
  <path id="路径_9862" data-name="路径 9862" d="M301.676,145.145a5.808,5.808,0,0,1,.713,3.755,4.415,4.415,0,0,1-.909,2.409,3.406,3.406,0,0,1-2.84,1.124,1.9,1.9,0,0,1-1.279-.518,2.228,2.228,0,0,1-.471-1.077C296.312,148.08,298.278,139.8,301.676,145.145Z" transform="translate(-131.919 -78.32)" fill="#231f20"/>
  <path id="路径_9863" data-name="路径 9863" d="M298.747,152.59h-.3a2.242,2.242,0,0,1-1.5-.626,2.564,2.564,0,0,1-.552-1.238c-.424-2.019.437-6.932,2.4-7.733.983-.4,2.019.2,3,1.79h0a6.165,6.165,0,0,1,.767,3.978,4.752,4.752,0,0,1-.983,2.584A3.756,3.756,0,0,1,298.747,152.59Zm.619-9.046a.787.787,0,0,0-.316.067c-1.467.6-2.4,5.048-2.019,6.973a1.972,1.972,0,0,0,.384.915,1.636,1.636,0,0,0,1.063.411,3.076,3.076,0,0,0,2.557-1,4.078,4.078,0,0,0,.835-2.228,5.492,5.492,0,0,0-.673-3.54h0c-.451-.761-1.137-1.6-1.831-1.6Z" transform="translate(-131.756 -78.153)" fill="#231f20"/>
  <path id="路径_9864" data-name="路径 9864" d="M273.784,158.635c.808.936,2.019,1.467,4.038,1.259a10.1,10.1,0,0,0,4.617-1.871,17.5,17.5,0,0,0,7.188-16.954c-1.1-6.5-7.592-12.963-14.571-10.466a8.588,8.588,0,0,0-5.122,5.135,2.557,2.557,0,0,0-2.692.707c-1.8,1.8-1.73,3.722-.761,5.882,1.6,3.547,3.554,6.925,4.987,10.546C272.283,154.987,272.606,157.255,273.784,158.635Z" transform="translate(-121.787 -73.961)" fill="#fff"/>
  <path id="路径_9865" data-name="路径 9865" d="M276.812,160.155a4.226,4.226,0,0,1-3.439-1.427h0a10.39,10.39,0,0,1-1.689-3.762c-.215-.673-.437-1.4-.673-2.093-.841-2.12-1.884-4.193-2.894-6.205-.673-1.407-1.434-2.86-2.086-4.321-1.151-2.564-.888-4.55.828-6.266a3.008,3.008,0,0,1,2.753-.888,8.884,8.884,0,0,1,5.209-5.028,9.618,9.618,0,0,1,8.312.875,14.645,14.645,0,0,1,6.73,9.853,17.95,17.95,0,0,1-7.39,17.243,10.513,10.513,0,0,1-4.772,1.932,8.2,8.2,0,0,1-.888.088Zm-2.955-1.891a3.939,3.939,0,0,0,3.749,1.144,9.732,9.732,0,0,0,4.462-1.817,17.236,17.236,0,0,0,7.047-16.61,13.945,13.945,0,0,0-6.387-9.389,8.992,8.992,0,0,0-7.74-.821,8.211,8.211,0,0,0-4.92,4.927.343.343,0,0,1-.182.2.316.316,0,0,1-.269,0,2.255,2.255,0,0,0-2.349.673c-1.528,1.528-1.736,3.177-.673,5.512.673,1.447,1.346,2.894,2.08,4.294,1.01,2.019,2.06,4.119,2.914,6.259.283.713.5,1.44.72,2.147a10.175,10.175,0,0,0,1.561,3.52Z" transform="translate(-121.632 -73.813)" fill="#231f20"/>
  <path id="路径_9866" data-name="路径 9866" d="M268.024,150.22s-4.227,3.607-3.883,4.711,2.544,1.07,2.544,1.07" transform="translate(-121.236 -80.555)" fill="#fff"/>
  <path id="路径_9867" data-name="路径 9867" d="M266.481,156.169c-.4,0-2.436-.061-2.827-1.306s2.955-4.18,3.984-5.061a.343.343,0,0,1,.478.04.33.33,0,0,1-.04.471c-1.959,1.676-3.944,3.816-3.776,4.348.222.673,1.7.848,2.214.835h0a.337.337,0,0,1,.337.33.343.343,0,0,1-.33.343Z" transform="translate(-121.074 -80.393)" fill="#231f20"/>
  <path id="路径_9868" data-name="路径 9868" d="M266.022,171.734c4.752.363,12.862-4.422,12.922-4.6a95.572,95.572,0,0,0,2.12-9.369s-3.217-.9-4.038-5.263-4.832-5.028-6.421-10.768c-2.309.989-2.692,4.375-3.284,6.481q-1.245,4.455-2.275,8.951c-.444,1.9,4.4,3.365,5.384,3.022C269.407,163.025,269.407,163.025,266.022,171.734Z" transform="translate(-121.53 -77.779)" fill="#fff"/>
  <path id="路径_9869" data-name="路径 9869" d="M266.383,171.942h-.525a.336.336,0,0,1-.256-.155.323.323,0,0,1,0-.3c3.17-8.171,3.365-8.675,4.274-11.038a8.507,8.507,0,0,1-4.577-1.79,1.716,1.716,0,0,1-.673-1.689c.673-2.988,1.454-6,2.282-8.958.094-.35.188-.74.289-1.151.491-2.08,1.11-4.664,3.19-5.552a.33.33,0,0,1,.276,0,.356.356,0,0,1,.182.215,13.213,13.213,0,0,0,3.554,5.9c1.353,1.481,2.463,2.692,2.867,4.893.747,4.092,3.648,4.967,3.769,5a.337.337,0,0,1,.242.384,93.361,93.361,0,0,1-2.134,9.422C278.962,167.587,271.115,171.942,266.383,171.942Zm0-.673c4.348,0,11.32-3.863,12.115-4.476a89.794,89.794,0,0,0,2.019-8.958,6.823,6.823,0,0,1-3.964-5.425c-.363-2.019-1.447-3.19-2.692-4.556a14.214,14.214,0,0,1-3.594-5.775c-1.5.9-2.019,3.116-2.457,4.913-.1.417-.2.814-.3,1.178-.821,2.948-1.588,5.95-2.275,8.931a1.124,1.124,0,0,0,.471,1.043,7.375,7.375,0,0,0,4.53,1.582.343.343,0,0,1,.343.094.337.337,0,0,1,.067.35c-1.07,2.78-1.07,2.827-4.28,11.1Z" transform="translate(-121.393 -77.63)" fill="#231f20"/>
  <path id="路径_9870" data-name="路径 9870" d="M266.14,161.43a2.5,2.5,0,0,0,3.789.047" transform="translate(-121.897 -84.22)" fill="#fff"/>
  <path id="路径_9871" data-name="路径 9871" d="M267.978,162.538h0a3.419,3.419,0,0,1-2.221-1.043.338.338,0,0,1,.5-.458,2.732,2.732,0,0,0,1.73.828,2.282,2.282,0,0,0,1.568-.781.338.338,0,1,1,.491.464,2.813,2.813,0,0,1-2.066.989Z" transform="translate(-121.742 -84.056)" fill="#231f20"/>
  <path id="路径_9872" data-name="路径 9872" d="M272.421,168.787a5.359,5.359,0,0,0,4.193-.787s-1.461,4.482-5.694,4.678Z" transform="translate(-123.459 -86.368)" fill="#231f20"/>
  <path id="路径_9873" data-name="路径 9873" d="M270.756,172.855a.343.343,0,0,1-.276-.135.363.363,0,0,1-.04-.323l1.508-3.89a.343.343,0,0,1,.39-.209,5.053,5.053,0,0,0,3.9-.72.343.343,0,0,1,.4,0,.337.337,0,0,1,.135.384c0,.047-1.588,4.711-6,4.913Zm1.716-3.843-1.2,3.123a6.2,6.2,0,0,0,4.435-3.453A6.057,6.057,0,0,1,272.472,169.012Z" transform="translate(-123.296 -86.209)" fill="#231f20"/>
  <ellipse id="椭圆_160" data-name="椭圆 160" cx="1.097" cy="0.431" rx="1.097" ry="0.431" transform="translate(147.558 69.518) rotate(-77.97)" fill="#231f20"/>
  <path id="路径_9874" data-name="路径 9874" d="M278.23,153.581a4.159,4.159,0,0,1,1.413-1.8,6.055,6.055,0,0,1,1.454-1.03,2.019,2.019,0,0,1,1.736,0,1.878,1.878,0,0,1,.9,1.245,3.46,3.46,0,0,1-.054,1.575,6.589,6.589,0,0,1-4.543,4.785l.215-.128" transform="translate(-125.85 -80.666)" fill="#fff"/>
  <path id="路径_9875" data-name="路径 9875" d="M278.962,158.5a.33.33,0,0,1-.31-.2.336.336,0,0,1,.135-.417l.215-.135a.33.33,0,0,1,.262-.034,6.286,6.286,0,0,0,3.91-4.408,3.136,3.136,0,0,0,.054-1.42,1.528,1.528,0,0,0-.727-1.03,1.7,1.7,0,0,0-1.44.04,5.642,5.642,0,0,0-1.346.976,3.944,3.944,0,0,0-1.346,1.635.343.343,0,0,1-.424.222.337.337,0,0,1-.222-.417,4.475,4.475,0,0,1,1.528-1.952,6.056,6.056,0,0,1,1.541-1.09,2.322,2.322,0,0,1,2.019,0,2.221,2.221,0,0,1,1.07,1.474,3.877,3.877,0,0,1-.054,1.723,6.993,6.993,0,0,1-4.785,5.041Z" transform="translate(-125.679 -80.495)" fill="#231f20"/>
  <path id="路径_9876" data-name="路径 9876" d="M260.622,179.691s14.4-5.815,18.905-.74,7,16.826,5.095,42.28l-33.692-1.2S253.622,182.82,260.622,179.691Z" transform="translate(-116.923 -89.269)" fill="#ff595e"/>
  <path id="路径_9877" data-name="路径 9877" d="M222.745,178.146c-1.555-1.346-14.5-18.488-14.665-21.295s-1.346-7.7-2.019-7.356-1.01,4.805-1.01,4.805-3.2-5.748-4.543-5.7-4.55,3.769-4.381,5.7,14.988,37.286,21.887,38.3,24.848-7.074,26.484-7.4,7.625-13.461,0-15.392C244.5,169.794,224.307,179.472,222.745,178.146Z" transform="translate(-99.002 -80.025)" fill="#fff"/>
  <path id="路径_9878" data-name="路径 9878" d="M219.153,192.85a9.481,9.481,0,0,1-1.346-.087c-7.208-1.05-21.988-36.451-22.21-38.6-.108-1.272,1.036-3.062,2.019-4.213.377-.424,1.683-1.817,2.692-1.851h0c1.2,0,3.21,3.1,4.294,4.94.175-1.683.5-3.715,1.1-4.038a.5.5,0,0,1,.485,0c.935.538,1.884,5.33,2.019,7.619.155,2.578,12.693,19.471,14.544,21.052.962.673,11.63-3.715,21.4-8.393a.283.283,0,0,1,.222,0c2.692.673,4.112,2.813,4.038,6.131-.1,4.2-2.753,9.651-4.038,9.92-.337.067-1.575.552-3.15,1.171C235.85,188.63,225.062,192.85,219.153,192.85Zm-18.8-44.077h0c-.377,0-1.2.525-2.174,1.622-1.2,1.346-1.952,2.847-1.878,3.708.2,2.261,15.224,37.064,21.6,37.992,5.283.774,17.324-3.937,23.112-6.2,1.723-.673,2.867-1.124,3.258-1.2.72-.148,3.412-4.947,3.513-9.274.067-2.961-1.077-4.792-3.412-5.431-.774.37-5.431,2.578-10.2,4.624-10.681,4.59-11.475,3.917-11.812,3.628-1.46-1.252-14.6-18.535-14.807-21.537-.155-2.584-1.077-6.306-1.6-6.993a17.325,17.325,0,0,0-.754,4.442.337.337,0,0,1-.633.141C203.1,151.633,201.068,148.773,200.355,148.773Z" transform="translate(-98.829 -79.862)" fill="#231f20"/>
  <path id="路径_9879" data-name="路径 9879" d="M250.551,241.04l-.781,5.216h34.473v-4.045Z" transform="translate(-116.544 -110.25)" fill="#231f20"/>
  <path id="路径_9880" data-name="路径 9880" d="M284.087,246.428H249.608a.33.33,0,0,1-.33-.384l.774-5.223a.316.316,0,0,1,.343-.283l33.692,1.171a.337.337,0,0,1,.323.337v4.038A.337.337,0,0,1,284.087,246.428ZM250,245.755H283.75V242.39l-33.073-1.151Z" transform="translate(-116.382 -110.086)" fill="#231f20"/>
  <path id="路径_9881" data-name="路径 9881" d="M84.215,80.543H67.147a.343.343,0,0,1-.337-.337.337.337,0,0,1,.337-.337H84.215a.337.337,0,1,1,0,.673Z" transform="translate(-56.721 -57.552)" fill="#d1d3d4"/>
  <path id="路径_9882" data-name="路径 9882" d="M75.687,94.793H67.146a.337.337,0,0,1-.337-.337.343.343,0,0,1,.337-.337h8.541a.337.337,0,0,1,0,.673Z" transform="translate(-56.721 -62.212)" fill="#d1d3d4"/>
  <path id="路径_9883" data-name="路径 9883" d="M329.756,210H317.836a.337.337,0,0,1,0-.673h11.933a.337.337,0,1,1-.013.673Z" transform="translate(-138.69 -99.882)" fill="#d1d3d4"/>
  <path id="路径_9884" data-name="路径 9884" d="M325.334,220.533h-7.5a.337.337,0,1,1,0-.673h7.511a.343.343,0,0,1,.337.336.337.337,0,0,1-.35.337Z" transform="translate(-138.69 -103.325)" fill="#d1d3d4"/>
  <path id="路径_9885" data-name="路径 9885" d="M328.78,234.661h-8.992a2.315,2.315,0,0,1-2.309-2.309v-1.474a2.315,2.315,0,0,1,2.308-2.308h8.992a2.315,2.315,0,0,1,2.308,2.308v1.454a2.315,2.315,0,0,1-2.309,2.329Zm-8.992-5.384a1.635,1.635,0,0,0-1.635,1.635v1.454A1.635,1.635,0,0,0,319.788,234h8.992a1.635,1.635,0,0,0,1.635-1.635v-1.487a1.635,1.635,0,0,0-1.635-1.635Z" transform="translate(-138.683 -106.173)" fill="#d1d3d4"/>
  <path id="路径_9886" data-name="路径 9886" d="M71.116,115.242a5.216,5.216,0,1,1,5.216-5.216A5.216,5.216,0,0,1,71.116,115.242Zm0-9.759a4.543,4.543,0,1,0,4.543,4.543A4.543,4.543,0,0,0,71.116,105.483Z" transform="translate(-56.424 -65.707)" fill="#d1d3d4"/>
  <path id="路径_9887" data-name="路径 9887" d="M72.549,111.38h0a.363.363,0,0,1-.242-.141l-1.959-2.692a.337.337,0,1,1,.545-.4l1.73,2.362,6.838-6.73a.33.33,0,0,1,.471,0,.337.337,0,0,1,0,.478l-7.148,7.04A.316.316,0,0,1,72.549,111.38Z" transform="translate(-57.857 -65.339)" fill="#d1d3d4"/>
</svg>
