<svg xmlns:xlink="http://www.w3.org/1999/xlink" xmlns="http://www.w3.org/2000/svg" version="1.1" viewBox="0 0 490 272" height="272px" width="490px">
    <title>注册完成</title>
    <defs>
        <polygon points="0 0.113396057 141.080797 0.113396057 141.080797 117.993509 0 117.993509" id="path-1"></polygon>
        <polygon points="0.500412686 0.389266163 278.028794 0.389266163 278.028794 16.6582704 0.500412686 16.6582704" id="path-3"></polygon>
        <polygon points="0 0 84.0995096 0 84.0995096 88.5333333 0 88.5333333" id="path-5"></polygon>
    </defs>
    <g fill-rule="evenodd" fill="none" stroke-width="1" stroke="none" id="登录页">
        <g transform="translate(-745.000000, -343.000000)" id="A-身份选择">
            <g transform="translate(746.000000, 343.000000)" id="注册完成">
                <path fill="#E7F3FE" fill-opacity="0.4" id="Fill-1" d="M56.8450352,265.901623 C56.8450352,265.901623 -39.2051422,90.2872674 32.6924689,49.3092675 C90.0545533,16.6159686 140.37211,73.8293298 201.759738,33.9843167 C280.957252,-17.4205475 340.995735,16.9933956 383.908807,80.9806913 C416.112113,128.998941 433.168382,160.060132 449.321631,197.450106 C474.48041,255.684989 421.143869,268.966543 421.143869,268.966543 L56.8450352,265.901623 Z"></path>
                <g transform="translate(208.572597, 104.148699)" id="编组-41">
                    <path fill="#E4EDF9" id="Fill-1" d="M220.678584,123.583412 C217.402197,115.032652 214.955851,105.957171 212.283456,96.3705869 C210.481309,89.9114444 207.577502,82.6833781 201.280262,80.6471368 C195.156357,78.6653648 188.560696,82.7714366 184.793788,88.0622142 C181.025987,93.3529917 179.127345,99.7694666 175.905459,105.419741 C170.066574,115.660863 159.720088,119.953038 151.171281,110.949275 C138.95921,98.0881831 133.463421,80.5572626 125.719639,64.8701253 C120.097869,53.4815179 115.391916,40.1492669 108.309308,29.6530469 C97.5080406,13.6472647 82.6977331,0 63.0018827,0 C50.5181945,1.92185588 39.5176814,13.1570417 32.0732146,27.1973926 C24.6287478,41.2377436 20.2855466,57.9361928 16.5847567,74.5937901 C9.85507305,104.887758 4.92306913,135.885287 0,166.840149 C0,166.840149 248.488117,163.896087 248.490798,163.896087 C247.50261,163.907889 241.409977,155.634013 240.2422,154.487436 C230.701631,145.107835 224.976218,134.796811 220.678584,123.583412"></path>
                    <path fill="#83AFFC" id="Fill-3" d="M172.649848,138.239091 C172.167016,148.044184 161.744942,165.184959 152.167159,164.690714 C142.58849,164.196469 137.481992,146.25402 137.964824,136.448927 C138.447655,126.644742 148.647361,77.5820968 158.22603,78.0763417 C167.803814,78.5705866 173.132679,128.433999 172.649848,138.239091"></path>
                    <line stroke-linejoin="round" stroke-linecap="round" stroke-width="0.867" stroke="#FFFFFF" id="Stroke-5" y2="163.631684" x2="152.674431" y1="84.4895625" x1="157.939066"></line>
                    <path fill="#FFC957" id="Fill-7" d="M150.613215,136.271648 C148.428038,141.159163 146.76631,146.288884 145.760224,151.630988 C145.250083,154.34045 144.929803,157.275851 146.132848,159.747624 C147.447681,162.445337 150.365686,164.018777 153.283691,164.506806 C160.413241,165.699764 167.544565,161.252379 171.723283,155.247821 C175.902001,149.244168 177.712779,141.905666 179.37362,134.743396 C180.681355,129.103053 181.966909,123.380467 184.430667,118.125124 C185.488211,115.872059 191.674666,107.175211 188.747789,104.919435 C184.744737,101.714715 173.155226,105.200504 165.728464,113.45903 C159.611211,120.2607 154.348333,127.913709 150.613215,136.271648"></path>
                    <path stroke-linejoin="round" stroke-linecap="round" stroke-width="0.867" stroke="#FFFFFF" id="Stroke-9" d="M153.727358,164.701172 C153.727358,164.701172 162.362975,130.038475 183.209317,110.157278"></path>
                    <path fill="#2A8EF2" id="Fill-11" d="M201.685577,128.614498 C200.929085,129.93978 199.511685,130.843786 198.225375,131.55274 C196.639563,132.426465 194.950882,133.195092 193.318642,133.938782 C191.222129,134.892664 189.0537,135.87861 187.052772,137.108592 C185.592587,138.006364 184.297173,139.018138 183.209317,140.102945 C184.928039,136.283854 186.935338,132.949274 189.301312,129.969171 C192.414675,126.046765 195.610878,124.060623 198.805261,124.060623 C198.878999,124.060623 198.952737,124.061514 199.026474,124.064186 C200.014193,124.091796 200.78343,124.330489 201.312338,124.774922 C202.396553,125.687834 202.353767,127.444189 201.685577,128.614498"></path>
                    <path fill="#2A8EF2" id="Fill-13" d="M205.897249,150.33689 C204.638842,151.201197 202.969728,151.420551 201.502795,151.521052 C199.69406,151.645149 197.839087,151.63204 196.046672,151.621553 C193.743822,151.605823 191.363001,151.590966 189.025699,151.858385 C187.321227,152.055891 185.713765,152.420316 184.262244,152.936803 C187.472635,150.254742 190.731077,148.122377 194.159967,146.450567 C198.67047,144.251784 202.413055,143.802589 205.287991,145.114343 C205.354176,145.14493 205.421267,145.176392 205.485638,145.208727 C206.363259,145.638695 206.950758,146.167417 207.233628,146.778287 C207.81206,148.033237 207.009689,149.573084 205.897249,150.33689"></path>
                    <path fill="#2A8EF2" id="Fill-15" d="M197.527533,161.470858 C196.464948,161.331921 195.512857,160.682964 194.722824,160.065663 C193.748634,159.305908 192.817721,158.456459 191.917194,157.636029 C190.76161,156.580814 189.566432,155.491304 188.254314,154.563593 C187.295778,153.886497 186.304093,153.338664 185.315171,152.936803 C188.261681,153.054635 190.960499,153.468807 193.518438,154.190751 C196.882063,155.141324 198.994342,156.616867 199.798187,158.581326 C199.816603,158.627052 199.835018,158.671899 199.851592,158.717625 C200.081789,159.331409 200.117699,159.863413 199.959324,160.29781 C199.631525,161.189467 198.466733,161.594846 197.527533,161.470858"></path>
                    <path stroke-linejoin="round" stroke-linecap="round" stroke-width="0.78" stroke="#FFFFFF" id="Stroke-17" d="M173.732973,164.701172 C173.732973,164.701172 173.831082,143.877726 199.003223,126.1996"></path>
                    <path stroke-linejoin="round" stroke-linecap="round" stroke-width="0.78" stroke="#FFFFFF" id="Stroke-19" d="M173.732973,164.701172 C173.732973,164.701172 181.395206,147.589362 202.162005,147.589362"></path>
                    <path stroke-linejoin="round" stroke-linecap="round" stroke-width="0.78" stroke="#FFFFFF" id="Stroke-21" d="M185.315171,152.939044 C185.315171,152.939044 189.406365,152.627414 197.950296,159.353732"></path>
                </g>
                <g transform="translate(22.952965, 151.672862)" id="编组">
                    <mask fill="white" id="mask-2">
                        <use xlink:href="#path-1"></use>
                    </mask>
                    <g id="Clip-24"></g>
                    <path mask="url(#mask-2)" fill="#E4EDF9" id="Fill-23" d="M141.080797,117.993509 C135.229446,95.5529023 129.345807,73.1013752 122.466612,51.3678674 C118.587536,39.1123967 114.307547,26.904248 108.362918,17.1013276 C102.417393,7.29658706 94.5399529,0.0627015613 86.6338122,0.113396057 C74.4494763,2.50615138 66.5890774,14.71248 61.4346145,28.2319923 C58.0542124,37.0966644 56.4155829,47.8360131 54.0244574,57.2048458 C50.7301574,70.110083 49.0027352,84.1474064 42.675132,95.4400577 C38.2462582,103.343731 31.4361247,101.327998 26.8467065,94.2260681 C24.3138714,90.307448 22.527254,85.6453276 19.6921649,82.0670614 C16.8561789,78.4897053 12.385151,76.1591001 8.78500932,78.4141722 C5.08441529,80.7320369 3.97674839,86.5972265 3.47897096,91.7416666 C2.73992843,99.3786986 2.09236932,106.597113 0.881559349,113.516126 C0.617871844,115.022238 0.324586762,116.513789 -8.96896275e-05,117.993509 L141.080797,117.993509 Z"></path>
                </g>
                <path fill="#FFC957" id="Fill-25" d="M111.9417,238.998875 C108.325183,234.722354 103.747752,231.031682 102.304163,225.635315 C101.249197,221.691745 102.081458,217.51893 102.493151,213.451641 C102.904845,209.384351 102.76022,204.888591 100.194232,201.757388 C98.0798655,199.179285 94.7401776,198.058529 91.5273695,197.350779 C88.3145613,196.642119 84.9615644,196.194544 82.1107628,194.518868 C77.4818702,191.797942 78.404632,187.168455 75.9184988,183.108443 C73.1306935,178.552642 66.6420809,172.74054 61.0806666,175.766217 C55.190962,178.971106 56.124371,188.699488 60.0416723,192.995113 C62.6404889,195.844308 65.967755,198.57797 66.3501688,202.45968 C66.9260076,208.302712 60.3956934,213.564444 62.1915298,219.141843 C63.5188872,223.260985 68.5825425,224.676486 71.0837594,228.17612 C73.5583581,231.637546 73.0597118,236.488091 71.6028129,240.511714 C70.145914,244.535338 67.8514313,248.25603 66.9455276,252.445219 C65.0911313,261.019185 71.6516128,266.943182 79.1277579,268.854471 C85.9978969,270.611111 100.813547,269.78237 100.813547,269.78237 C106.101682,267.885636 111.963881,263.124242 114.870581,257.920731 C117.066577,253.989898 117.370911,249.005626 115.669125,244.823714 C114.791614,242.669533 113.450948,240.782806 111.9417,238.998875"></path>
                <path stroke-linejoin="round" stroke-linecap="round" stroke="#FFFFFF" id="Stroke-27" d="M66.8629857,184.02974 C66.8629857,184.02974 92.9647244,224.277392 95.803681,268.966543"></path>
                <path fill="#97BDFF" id="Fill-29" d="M45.4894123,238.161584 C45.8511919,237.82483 46.3777912,237.644872 47.0535525,237.62349 C47.1046466,237.621709 47.1549166,237.620818 47.2060108,237.620818 C49.3923457,237.620818 51.5795047,239.122847 53.7114491,242.089488 C55.3308039,244.343422 56.7045771,246.866404 57.8813906,249.754647 C57.136405,248.933253 56.2496744,248.167984 55.2500422,247.490022 C53.8803894,246.55994 52.3961869,245.81338 50.9614304,245.091764 C49.843952,244.528726 48.687741,243.948761 47.6024025,243.287726 C46.7222646,242.750523 45.7514759,242.068107 45.2339416,241.064972 C44.7765666,240.180325 44.7477232,238.851128 45.4894123,238.161584"></path>
                <path fill="#97BDFF" id="Fill-31" d="M40.0597506,256.511027 C40.2661169,256.07743 40.6972908,255.702848 41.3392218,255.397937 C41.3875203,255.374167 41.4358188,255.352036 41.4841173,255.330725 C43.5899319,254.400418 46.3306523,254.718444 49.6351479,256.278245 C52.1457918,257.463465 54.5326158,258.976546 56.8834356,260.877323 C55.8199904,260.511758 54.6432633,260.252747 53.3945275,260.114226 C51.6830043,259.923246 49.9389894,259.934721 48.2529326,259.944557 C46.9392134,259.952754 45.5807083,259.96177 44.2564512,259.874887 C43.1824682,259.803577 41.9600771,259.647023 41.0380148,259.033922 C40.2239655,258.49295 39.635602,257.400351 40.0597506,256.511027"></path>
                <path fill="#97BDFF" id="Fill-33" d="M46.9699024,266.097109 C46.8619046,265.788704 46.8866369,265.411857 47.0424505,264.976463 C47.0539922,264.944303 47.0663584,264.912143 47.0787245,264.879159 C47.6228353,263.487216 49.0531871,262.439961 51.3310326,261.766254 C53.0622941,261.25417 54.8891872,260.960609 56.8834356,260.877323 C56.2148389,261.162639 55.5429445,261.550206 54.8941337,262.030129 C54.0054194,262.688168 53.196673,263.461653 52.4143076,264.209575 C51.8050685,264.790925 51.1743946,265.392891 50.5148664,265.932187 C49.9798242,266.36923 49.3359598,266.830188 48.6162496,266.929141 C47.9814538,267.015725 47.1916687,266.72876 46.9699024,266.097109"></path>
                <path stroke-linejoin="round" stroke-linecap="round" stroke-width="0.78" stroke="#001E48" id="Stroke-35" d="M64.8670757,268.966543 C64.8670757,268.966543 64.7936172,253.107412 45.9059305,239.643123"></path>
                <path stroke-linejoin="round" stroke-linecap="round" stroke-width="0.78" stroke="#001E48" id="Stroke-37" d="M64.8670757,268.966543 C64.8670757,268.966543 58.9503467,256.832714 42.9120654,256.832714"></path>
                <path stroke-linejoin="round" stroke-linecap="round" stroke-width="0.78" stroke="#001E48" id="Stroke-39" d="M56.8834356,260.878751 C56.8834356,260.878751 53.9752384,260.681561 47.9018405,264.921933"></path>
                <g transform="translate(22.952965, 0.000000)" id="编组-37">
                    <g transform="translate(59.920901, 86.400000)" id="编组">
                        <rect rx="6" height="178.133333" width="238.632358" y="0" x="16.8199019" fill="#91B3FA" id="矩形"></rect>
                        <g transform="translate(0.000000, 167.466667)">
                            <mask fill="white" id="mask-4">
                                <use xlink:href="#path-3"></use>
                            </mask>
                            <g id="Clip-6"></g>
                            <path mask="url(#mask-4)" fill="#91B3FA" id="Fill-5" d="M267.258932,16.6584853 L9.16730886,16.6584853 C5.5418379,16.6584853 2.60290043,14.9267902 2.60290043,12.7909202 L2.60290043,8.12515197 L273.823819,8.12515197 L273.823819,12.7909202 C273.823819,14.9267902 270.884403,16.6584853 267.258932,16.6584853"></path>
                        </g>
                        <polygon points="24.178609 160 249.144797 160 249.144797 8.53333333 24.178609 8.53333333" fill="#FDFDFD" id="Fill-7"></polygon>
                        <polygon points="111.43185 168.533333 115.045597 173.866667 165.894384 173.866667 169.250263 168.533333" fill="#527EE9" id="Fill-9"></polygon>
                        <polygon points="16.8199019 169.6 254.401017 169.6 254.401017 168.533333 16.8199019 168.533333" fill="#527EE9" id="Fill-10"></polygon>
                    </g>
                    <g transform="translate(193.428872, 74.666667)" id="编组-38">
                        <polygon points="82.3708945 192 86.2019973 192 84.776041 186.666667 80.945778 186.666667" transform="translate(83.573888, 189.333333) scale(-1, 1) translate(-83.573888, -189.333333)" fill="#FFF1D6" id="Fill-89"></polygon>
                        <polygon points="81.2414439 189.866667 83.4180191 190.55502 85.4395805 189.866667 87.2532412 194.133333 70.4333393 194.133333 76.7569878 192" fill="#001E48" id="Fill-88"></polygon>
                        <polygon points="123.369405 192 127.200508 192 125.774552 186.666667 121.944289 186.666667" fill="#FFF1D6" id="Fill-89"></polygon>
                        <polygon points="126.905754 189.866667 124.728267 190.55502 122.707618 189.866667 120.893045 194.133333 137.712947 194.133333 131.389298 192" fill="#001E48" id="Fill-90"></polygon>
                        <path fill="#FFF1D6" id="Fill-106" d="M106.175631,89.6 L107.859744,84.7933711 L113.551608,84.2819209 C114.598021,84.153557 115.527659,84.8495304 115.628012,85.8343227 C115.728365,86.8211207 114.960205,87.7236798 113.912881,87.8520438 L106.175631,89.6 Z"></path>
                        <path fill="#FFF1D6" id="Fill-107" d="M103.68139,85.1701632 L106.723245,89.6 L112.483094,88.427972 L106.027507,78.9333333 L104.786663,79.7501166 C102.969646,80.9435897 102.47538,83.3706294 103.68139,85.1701632"></path>
                        <polygon points="108.484831 83.2 127.200508 63.1460268 117.338263 60.8 106.175631 78.5245131" fill="#E7F3FE" id="Fill-108"></polygon>
                        <polygon points="59.0189641 76.8 76.7408025 55.1599846 69.3246908 54.3530559 56.7097643 72.1245131" transform="translate(66.725283, 65.576528) scale(-1, 1) translate(-66.725283, -65.576528)" fill="#E7F3FE" id="Fill-108"></polygon>
                        <path fill="#E7F3FE" id="Fill-109" d="M120.235751,62.600856 C121.215111,64.7364441 123.717035,65.6610576 125.820846,64.6673225 C127.925541,63.6717919 128.838548,61.1340418 127.857419,58.9984538 C126.877174,56.8628657 124.37702,55.9382521 122.272325,56.9337826 C120.16763,57.9275178 119.255507,60.4652679 120.235751,62.600856"></path>
                        <path fill="#E7F3FE" id="Fill-110" d="M121.510859,64 L127.200508,57.8463129 L107.336319,33.9503481 C105.635445,31.6035193 102.279738,31.3303815 100.232669,33.3717272 C98.1838282,35.4139715 98.3848164,42.6350524 100.66652,44.4032604 L121.510859,64 Z"></path>
                        <polygon points="88.3044851 35.5635859 96.6460387 36.2666667 97.7656799 23.1030808 89.4241263 22.4" fill="#F9EDD4" id="Fill-111"></polygon>
                        <path fill="#E7F3FE" id="Fill-112" d="M59.6400703,49.0750696 C57.3228106,49.2129947 55.5701418,50.9924989 55.7255058,53.0496563 C55.8808699,55.1068137 57.8843551,56.6627531 60.2026303,56.524828 C62.5188745,56.3869029 64.2725588,54.6083001 64.1161793,52.5502412 C63.9618307,50.4930838 61.9563146,48.9380459 59.6400703,49.0750696"></path>
                        <path transform="translate(71.875797, 43.235326) rotate(-14.000000) translate(-71.875797, -43.235326)" fill="#E7F3FE" id="Fill-113" d="M56.467502,46.0794646 L60.5077516,52.332048 L83.6379979,47.1603022 C86.4737371,46.4441848 88.032802,39.6828704 86.9257747,37.0371661 C85.8187474,34.3914618 82.5725473,33.3364609 80.0515721,34.8038263 L56.467502,46.0794646 Z"></path>
                        <path fill="#E7F3FE" id="Fill-114" d="M103.565263,80.862864 L106.05312,36.7470457 C106.636978,34.3917678 105.070813,32.0446241 102.697945,31.7192595 L82.311954,30.970921 C79.9390853,30.6446527 77.8131304,32.4829624 77.7578645,34.9105435 L73.5870709,88.5333333 L103.565263,80.862864 Z"></path>
                        <polygon points="83.7481278 81.0666667 88.3044851 96.0258592 86.2786692 188.8 78.156392 188.8 73.5870709 88.7981487 74.2101994 81.0666667" fill="#1A55B5" id="Fill-115"></polygon>
                        <polygon points="84.0995096 81.0666667 88.6713954 99.436566 91.9619091 99.436566 121.408586 188.8 128.251752 188.8 107.517873 93.1927133 103.536911 81.0666667" fill="#527EE9" id="Fill-116"></polygon>
                        <polygon points="87.388638 32 93.5607044 32.2242496 91.0498772 35.8896942 91.0498772 65.080863 87.431007 72.5333333 84.0995096 63.5525437 88.7380004 35.651035" fill="#1661F7" id="Fill-118"></polygon>
                        <path fill="#1A55B5" id="Fill-119" d="M83.0513218,10.5509858 C82.5708031,10.0137863 82.1294174,9.44178483 81.7435463,8.83230431 C80.9690738,7.65439173 80.439411,6.2587438 80.5058464,4.84346399 C80.5822925,3.45852435 81.2102432,2.00487315 82.3514754,1.13303937 C82.7855804,0.793050963 83.2906712,0.558360805 83.8276145,0.421830029 C83.5627831,0.542298361 83.3052323,0.685075643 83.065883,0.884963838 C81.9674243,1.78178364 81.5433301,3.23186541 81.455053,4.51239916 C81.2739484,7.21802866 82.3178026,9.7889121 84.2708203,11.5316873 C84.2635397,11.5655969 84.2589893,11.6012912 84.2507987,11.6360932 C83.8248843,11.2987819 83.4162613,10.9436234 83.0513218,10.5509858 M104.016684,12.4079829 C103.813738,10.4323022 103.066568,8.51284014 101.798835,7.01010925 C100.625751,5.61981546 99.0340321,4.58111073 97.286691,4.02249461 C96.4284917,3.74764835 95.6167062,3.59951692 94.7366652,3.68964508 C93.6482173,3.80118983 92.5333773,3.91987344 91.4949835,3.46655557 C90.0324954,2.83208902 88.9831807,1.59081903 87.6626641,0.785912099 C87.3586996,0.60119399 87.0219724,0.449493128 86.6688639,0.333486586 L86.670684,0.329024796 C85.2719011,-0.249223197 83.4508441,-0.0573662242 82.136698,0.842130654 C81.4768948,1.27581665 80.9681637,1.90492905 80.6014041,2.58579821 C80.241015,3.26755974 79.9861944,4.0207099 79.918849,4.80330788 C79.7841581,6.36225733 80.2155329,7.93816158 81.0518904,9.26331323 C81.8245428,10.4510417 82.8875086,11.4995624 84.1497805,12.1822163 C84.0979063,12.5025728 84.056043,12.8264988 84.0405717,13.1575636 C83.77119,18.5813156 88.0376144,23.1912371 93.5690409,23.4553751 C97.4423136,23.6400932 101.161784,21.5448366 102.952808,18.1717233 C103.873803,16.4396564 104.220541,14.3961565 104.016684,12.4079829"></path>
                        <path fill="#FFF1D6" id="Fill-121" d="M91.3050325,8.53417663 C86.9181165,8.46939861 85.2199844,12.1581467 85.2199844,12.1581467 C85.2199844,12.1608458 84.9781647,13.4555064 84.9772657,13.4573058 L84.7830907,14.6098146 C84.7830907,14.6628966 84.7812928,14.7150789 84.7839897,14.7699603 L84.7624147,14.7330728 L84.219444,17.9476818 C83.4715107,22.3795776 86.2924416,26.7772851 90.7090232,27.5960072 C95.1840371,28.4237263 99.4549876,25.4223449 100.211011,20.9472637 L100.875342,17.0084006 L100.875342,17.0003033 C100.875342,17.0003033 102.125792,9.28182288 91.3050325,8.53417663"></path>
                        <path fill="#1A55B5" id="Fill-123" d="M93.5607044,7.88504925 C94.6391318,8.05045647 95.7211242,8.34481017 96.7353807,8.74232107 C97.4947362,9.0411212 98.2273538,9.41462137 98.8458898,9.95352875 C100.85836,11.7089795 99.0660316,15.4733276 98.3726295,17.4350928 C98.2032897,17.9153073 98.0054295,18.486229 98.3075674,18.8953006 C98.6346606,19.3390544 99.3601481,19.2590186 99.7834977,18.905972 C100.206847,18.5529255 100.42788,18.0220216 100.712193,17.5507 C100.996506,17.0784891 101.419855,16.6160603 101.970655,16.5804889 C101.970655,16.5804889 101.649801,7.67873488 101.649801,7.6707313 C101.647127,7.60581341 96.0419786,7.48309193 95.6123902,7.46797407 C94.7434095,7.43951691 93.5607044,7.88504925 93.5607044,7.88504925"></path>
                    </g>
                    <g transform="translate(155.584093, 121.600000)" id="编组">
                        <mask fill="white" id="mask-6">
                            <use xlink:href="#path-5"></use>
                        </mask>
                        <g id="Clip-2"></g>
                        <path mask="url(#mask-6)" fill="#07D1BD" id="Fill-1" d="M63.7062267,0 C64.7565301,0 65.8062978,1.06214641 65.8062978,2.12418445 L65.8062978,9.20732795 C65.8062978,10.2697995 64.7565301,11.3319459 63.7062267,11.3319459 L63.0063102,11.3319459 C61.9558997,11.3319459 60.9060248,10.2697995 60.9060248,9.20732795 L60.9060248,2.12418445 C60.9060248,1.06214641 61.9558997,0 63.0063102,0 L63.7062267,0 Z M77.3614556,5.6657562 L77.7091644,6.02088872 C78.4096165,6.72790261 78.4096165,8.14518154 77.7091644,8.853821 L72.8092128,14.1648782 C72.1087606,14.8735176 70.7096773,14.8735176 70.009118,14.1648782 L69.6592668,13.8113712 C68.9588146,13.1027318 68.9588146,11.6871868 69.6592668,10.9784389 L74.5595398,5.66749014 C75.259992,4.95711674 76.6593966,4.95711674 77.3598488,5.66749014 L77.3614556,5.6657562 Z M81.5608479,14.8735176 C82.6106157,14.8735176 83.6604905,15.5821571 84.0099132,16.6443035 L84.0099132,17.352943 C84.3609427,18.4150894 83.6604905,19.4771274 82.2595862,19.8323683 L75.259992,21.2479133 C74.2102242,21.6031542 73.1603494,20.8944064 72.8092128,19.4771274 L72.8092128,18.768488 C72.4598972,17.7064499 73.1586354,16.6443035 74.5595398,16.2907966 L81.5608479,14.8735176 Z M56.7661908,33.3203598 C55.3651793,32.2582134 53.6165662,32.6129124 52.5649774,34.0289993 L36.1117962,55.985552 L26.3115716,46.0691511 C24.912274,45.0070047 22.8110246,45.0070047 21.7610426,46.0691511 C20.711382,47.4864301 20.711382,49.6107229 21.7610426,50.6727609 L34.0133319,63.0686955 C34.3626474,63.777335 35.4125223,64.1307336 36.1129745,64.1307336 C37.1629565,64.1307336 38.2126171,63.777335 38.9131764,62.7134546 L57.4665358,37.5704626 C58.5164107,36.1549177 58.1652741,34.3836983 56.7661908,33.3215519 L56.7661908,33.3203598 Z M39.5541774,8.49868849 C61.2571614,8.49868849 79.1100687,26.5602709 79.1100687,48.5168237 C79.1100687,70.4734848 61.2571614,88.5333333 39.5541774,88.5333333 C17.8511934,88.5333333 0,70.4734848 0,48.5168237 C0,26.5602709 17.8529073,8.49738803 39.5541774,8.49738803 L39.5541774,8.49868849 Z"></path>
                    </g>
                </g>
                <line stroke-linecap="square" stroke="#A4AAB9" id="直线-3" y2="269.472119" x2="488" y1="269.472119" x1="-6.577313e-13"></line>
            </g>
        </g>
    </g>
</svg>