<svg xmlns="http://www.w3.org/2000/svg" width="124.134" height="106.893" viewBox="0 0 124.134 106.893">
  <g id="编辑规则" transform="translate(-220 -192)">
    <g id="空白页" transform="translate(-296.2 -637.2)">
      <g id="浏览器打开" transform="translate(516.2 829.2)">
        <g id="分组-11" transform="translate(0 0)">
          <g id="背景_线" data-name="背景/线" transform="translate(0 0)">
            <g id="_-" data-name="-">
              <g id="编组">
                <path id="Path-2" d="M1.061,96.947a1.061,1.061,0,0,1,0-2.122H93.9a1.061,1.061,0,0,1,0,2.122Zm98.14,0a1.061,1.061,0,1,1,0-2.122h3.316a1.061,1.061,0,0,1,0,2.122Zm11.936,0a1.061,1.061,0,1,1,0-2.122h11.936a1.061,1.061,0,0,1,0,2.122Zm-79.573,9.947a1.061,1.061,0,0,1,0-2.122h9.284a1.061,1.061,0,1,1,0,2.122Zm15.252,0a1.061,1.061,0,1,1,0-2.122h40.45a1.061,1.061,0,0,1,0,2.122Zm66.541-41.406a1.061,1.061,0,1,1,2.122,0v3.979a1.061,1.061,0,0,1-1.061,1.061h-3.979a1.061,1.061,0,1,1,0-2.122h2.918Zm2.122,7.957a1.061,1.061,0,1,1-2.122,0V69.466a1.061,1.061,0,0,1,1.061-1.061H118.4a1.061,1.061,0,1,1,0,2.122h-2.918ZM5.3,38.2a1.061,1.061,0,1,1,2.122,0v3.979a1.061,1.061,0,0,1-1.061,1.061H2.387a1.061,1.061,0,0,1,0-2.122H5.3ZM103.578,4.642h3.581a1.061,1.061,0,1,1,0,2.122h-3.581v3.581a1.061,1.061,0,1,1-2.122,0V6.764H97.875a1.061,1.061,0,1,1,0-2.122h3.581V1.061a1.061,1.061,0,0,1,2.122,0ZM7.427,46.153a1.061,1.061,0,1,1-2.122,0V42.174a1.061,1.061,0,0,1,1.061-1.061h3.979a1.061,1.061,0,1,1,0,2.122H7.427Z" transform="translate(0 0)" fill="#e2e6ef"/>
                <path id="Path复制" d="M14.836,78.269a.663.663,0,0,1,.938.938l-1.407,1.407a.663.663,0,0,1-.938,0l-1.407-1.407a.663.663,0,0,1,.938-.938l.938.938ZM12.96,82.02a.663.663,0,0,1-.938-.938l1.407-1.407a.663.663,0,0,1,.938,0l1.407,1.407a.663.663,0,1,1-.938.938l-.938-.938ZM26.544,8.851a.663.663,0,0,1,.938.938L26.075,11.2a.663.663,0,0,1-.938,0L23.731,9.788a.663.663,0,0,1,.938-.938l.938.938ZM24.669,12.6a.663.663,0,1,1-.938-.938l1.407-1.407a.663.663,0,0,1,.938,0l1.407,1.407a.663.663,0,1,1-.938.938l-.938-.938Z" transform="translate(3.855 2.82)" fill="#e2e6ef"/>
              </g>
            </g>
          </g>
        </g>
      </g>
    </g>
    <g id="Group-6" transform="translate(257.182 218.25)">
      <g id="分组" transform="translate(0 0)">
        <path id="矩形" d="M3.977,0H46.4a3.977,3.977,0,0,1,3.977,3.977v51.7A3.977,3.977,0,0,1,46.4,59.659H3.977A3.977,3.977,0,0,1,0,55.681V3.977A3.977,3.977,0,0,1,3.977,0Z" transform="translate(0.318 0)" fill="#fff" stroke="#ccd2df" stroke-width="1.6" fill-rule="evenodd"/>
        <path id="路径复制-7" d="M9,17.652V16.326C9,15.594,9.278,15,9.622,15h3.651c.343,0,.622.594.622,1.326v1.326c0,.732-.278,1.326-.622,1.326H9.622C9.278,18.979,9,18.385,9,17.652Z" transform="translate(-3.182 -4.355)" fill="#ccd2df" fill-rule="evenodd" opacity="0.6"/>
        <path id="路径复制-7-2" data-name="路径复制-7" d="M9,17.652V16.326C9,15.594,9.278,15,9.622,15h3.651c.343,0,.622.594.622,1.326v1.326c0,.732-.278,1.326-.622,1.326H9.622C9.278,18.979,9,18.385,9,17.652Z" transform="translate(-3.182 7.645)" fill="#ccd2df" fill-rule="evenodd" opacity="0.6"/>
        <path id="路径复制-7-3" data-name="路径复制-7" d="M9,17.652V16.326C9,15.594,9.278,15,9.622,15h3.651c.343,0,.622.594.622,1.326v1.326c0,.732-.278,1.326-.622,1.326H9.622C9.278,18.979,9,18.385,9,17.652Z" transform="translate(-3.182 19.645)" fill="#ccd2df" fill-rule="evenodd" opacity="0.6"/>
        <path id="路径复制-7-4" data-name="路径复制-7" d="M17,17.652V16.326c0-.732.278-1.326.622-1.326H48.273c.343,0,.622.594.622,1.326v1.326c0,.732-.278,1.326-.622,1.326H17.622C17.278,18.979,17,18.385,17,17.652Z" transform="translate(-3.182 -4.355)" fill="#ccd2df" fill-rule="evenodd" opacity="0.6"/>
        <path id="路径复制-7-5" data-name="路径复制-7" d="M17,17.652V16.326c0-.732.278-1.326.622-1.326H48.273c.343,0,.622.594.622,1.326v1.326c0,.732-.278,1.326-.622,1.326H17.622C17.278,18.979,17,18.385,17,17.652Z" transform="translate(-3.182 7.645)" fill="#ccd2df" fill-rule="evenodd" opacity="0.6"/>
        <path id="路径复制-7-6" data-name="路径复制-7" d="M17,17.652V16.326c0-.732.278-1.326.622-1.326H38.273c.343,0,.622.594.622,1.326v1.326c0,.732-.278,1.326-.622,1.326H17.622C17.278,18.979,17,18.385,17,17.652Z" transform="translate(-3.182 19.645)" fill="#ccd2df" fill-rule="evenodd" opacity="0.6"/>
      </g>
    </g>
    <g id="组_7182" data-name="组 7182" transform="translate(255.107 209.424)">
      <path id="Path-10" d="M30.733,48.012l-2.928.845a1.808,1.808,0,0,1-2.306-1.63L25.338,44.5a1.807,1.807,0,0,1,.284-1.084L40.593,20.131a1.807,1.807,0,0,1,2.5-.543l3.041,1.955a1.807,1.807,0,0,1,.543,2.5L31.752,47.253A1.806,1.806,0,0,1,30.733,48.012Z" transform="translate(16.622 12.501)" fill="#e2e6ef" stroke="#ccd2df" stroke-width="1.6"/>
      <path id="Path-11" d="M33,22l4.519,2.711" transform="translate(22.811 14.681)" fill="none" stroke="#ccd2df" stroke-linecap="round" stroke-width="1.6" fill-rule="evenodd"/>
    </g>
  </g>
</svg>
